<svg width="21" height="20" viewBox="0 0 21 20" fill="none" xmlns="http://www.w3.org/2000/svg">
<path d="M16.8021 4.58314H14.5258C13.6546 4.58314 12.9098 4.89227 12.2916 5.51054C11.7014 6.12881 11.4063 6.87354 11.4063 7.74473V9.97892H9.59368V12.6768H11.4063V18.9578H14.1042V12.6768H16.8021V9.97892H14.1042V8.16628C14.1042 7.94145 14.1885 7.74473 14.3571 7.57611C14.5258 7.37939 14.7365 7.28103 14.9895 7.28103H16.8021V4.58314ZM1.5 2C1.5 1.44772 1.94772 1 2.5 1H18.5C19.0523 1 19.5 1.44772 19.5 2V17.9578C19.5 18.5101 19.0523 18.9578 18.5 18.9578H2.5C1.94772 18.9578 1.5 18.5101 1.5 17.9578V2Z" fill="#121212"/>
</svg>
