<svg width="15" height="13" viewBox="0 0 15 13" fill="none" xmlns="http://www.w3.org/2000/svg">
<path fill-rule="evenodd" clip-rule="evenodd" d="M5.91465 3.5C5.70873 4.0826 5.15311 4.5 4.5 4.5C3.84689 4.5 3.29127 4.0826 3.08535 3.5C3.03008 3.34361 3 3.17532 3 3C3 2.82468 3.03008 2.65639 3.08535 2.5C3.29127 1.9174 3.84689 1.5 4.5 1.5C5.15311 1.5 5.70873 1.9174 5.91465 2.5C5.96992 2.65639 6 2.82468 6 3C6 3.17532 5.96992 3.34361 5.91465 3.5ZM6.94999 2.5C6.71836 1.35888 5.70948 0.5 4.5 0.5C3.29052 0.5 2.28164 1.35888 2.05001 2.5H0.5V3.5H2.05001C2.28164 4.64112 3.29052 5.5 4.5 5.5C5.70948 5.5 6.71836 4.64112 6.94999 3.5H14.5V2.5H6.94999ZM9.08535 10.5C9.29127 11.0826 9.84689 11.5 10.5 11.5C11.1531 11.5 11.7087 11.0826 11.9146 10.5C11.9699 10.3436 12 10.1753 12 10C12 9.82468 11.9699 9.65639 11.9146 9.5C11.7087 8.9174 11.1531 8.5 10.5 8.5C9.84689 8.5 9.29127 8.9174 9.08535 9.5C9.03008 9.65639 9 9.82468 9 10C9 10.1753 9.03008 10.3436 9.08535 10.5ZM8.05001 9.5C8.28164 8.35888 9.29052 7.5 10.5 7.5C11.7095 7.5 12.7184 8.35888 12.95 9.5H14.5V10.5H12.95C12.7184 11.6411 11.7095 12.5 10.5 12.5C9.29052 12.5 8.28164 11.6411 8.05001 10.5H0.5V9.5H8.05001Z" fill="black"/>
</svg>
