<svg width="38" height="24" viewBox="0 0 38 24" fill="none" xmlns="http://www.w3.org/2000/svg">
<path opacity="0.07" d="M35 0H3C1.3 0 0 1.3 0 3V21C0 22.7 1.4 24 3 24H35C36.7 24 38 22.7 38 21V3C38 1.3 36.6 0 35 0Z" fill="black"/>
<path d="M35 1C36.1 1 37 1.9 37 3V21C37 22.1 36.1 23 35 23H3C1.9 23 1 22.1 1 21V3C1 1.9 1.9 1 3 1H35Z" fill="white"/>
<path d="M18.093 11.976V15.176H17.075V7.27599H19.766C20.0884 7.27053 20.4087 7.32885 20.7085 7.44761C21.0083 7.56637 21.2817 7.74322 21.513 7.96799C21.732 8.17238 21.9086 8.41794 22.0327 8.69062C22.1568 8.96331 22.2259 9.25777 22.2361 9.55719C22.2463 9.8566 22.1974 10.1551 22.0922 10.4356C21.987 10.7161 21.8275 10.9731 21.6229 11.192L21.513 11.308C21.043 11.755 20.415 11.998 19.766 11.982L18.093 11.976ZM18.093 8.24399V11.032H19.791C20.168 11.044 20.5319 10.897 20.7959 10.628C20.9848 10.4312 21.1116 10.1832 21.1606 9.91482C21.2096 9.64649 21.1786 9.36967 21.0715 9.11881C20.9644 8.86795 20.7859 8.65412 20.5582 8.50391C20.3305 8.3537 20.0637 8.27374 19.791 8.27399L18.093 8.24399ZM24.577 9.59199C25.2269 9.56199 25.863 9.77999 26.3549 10.205C26.7999 10.635 27.0369 11.235 27.0049 11.854V15.188H26.0359V14.422H25.9869C25.8132 14.7093 25.5674 14.9463 25.274 15.1096C24.9806 15.2728 24.6497 15.3567 24.3139 15.353C23.7658 15.3707 23.2314 15.1803 22.818 14.82C22.6221 14.6602 22.4651 14.458 22.3589 14.2286C22.2527 13.9992 22.2001 13.7487 22.205 13.496C22.1934 13.2406 22.243 12.9861 22.3496 12.7537C22.4563 12.5214 22.6168 12.3178 22.818 12.16C23.3114 11.8051 23.9086 11.624 24.516 11.645C25.033 11.625 25.546 11.738 26.006 11.976V11.768C26.0093 11.596 25.9735 11.4255 25.9013 11.2694C25.829 11.1133 25.7222 10.9757 25.589 10.867C25.3213 10.6236 24.9706 10.492 24.6089 10.499C24.3463 10.4965 24.0873 10.561 23.8565 10.6865C23.6257 10.812 23.4307 10.9942 23.29 11.216L22.395 10.652C22.638 10.3038 22.9661 10.0236 23.348 9.83804C23.7299 9.65249 24.153 9.56779 24.577 9.59199ZM23.29 13.52C23.2875 13.6495 23.317 13.7776 23.3758 13.8931C23.4346 14.0085 23.5208 14.1077 23.627 14.182C23.85 14.358 24.127 14.451 24.412 14.445C24.841 14.444 25.252 14.275 25.558 13.973C25.863 13.687 26.0359 13.288 26.0359 12.87C25.651 12.5963 25.1832 12.4642 24.712 12.496C24.346 12.4816 23.9851 12.5846 23.6819 12.79C23.5619 12.8703 23.4634 12.9789 23.395 13.1062C23.3267 13.2334 23.2906 13.3755 23.29 13.52ZM32.576 9.76999L29.186 17.56H28.138L29.419 14.832L27.195 9.76999H28.298L29.91 13.655L31.479 9.76999H32.576Z" fill="#5F6368"/>
<path d="M13.986 11.284C13.986 10.976 13.962 10.668 13.913 10.364H9.62305V12.111H12.074C12.0241 12.3887 11.9187 12.6534 11.7641 12.8893C11.6094 13.1252 11.4087 13.3275 11.174 13.484V14.618H12.638C13.0832 14.1873 13.4331 13.6681 13.6653 13.0938C13.8975 12.5196 14.0067 11.9031 13.986 11.284Z" fill="#4285F4"/>
<path d="M9.62903 15.7209C10.7353 15.7513 11.8117 15.359 12.639 14.6239L11.173 13.4839C10.8208 13.7098 10.4217 13.8523 10.006 13.9008C9.59043 13.9492 9.16924 13.9022 8.77451 13.7633C8.37978 13.6245 8.02191 13.3975 7.72812 13.0995C7.43432 12.8016 7.21233 12.4406 7.07903 12.0439H5.57703V13.2139C5.95288 13.967 6.53107 14.6004 7.24678 15.0432C7.96249 15.486 8.78741 15.7207 9.62903 15.7209Z" fill="#34A853"/>
<path d="M7.07905 12.05C6.88885 11.4873 6.88885 10.8777 7.07905 10.315V9.14502H5.57705C5.25684 9.77647 5.08997 10.4745 5.08997 11.1825C5.08997 11.8905 5.25684 12.5886 5.57705 13.22L7.07905 12.05Z" fill="#FBBC04"/>
<path d="M9.62903 8.43994C10.276 8.42813 10.9015 8.67255 11.369 9.11994L12.669 7.82694C11.8401 7.04896 10.7407 6.6246 9.60403 6.64394C8.76739 6.64814 7.94827 6.88395 7.23746 7.32522C6.52665 7.7665 5.95194 8.396 5.57703 9.14394L7.07903 10.3149C7.25465 9.77503 7.59512 9.30375 8.05253 8.96741C8.50995 8.63108 9.0613 8.4466 9.62903 8.43994Z" fill="#EA4335"/>
</svg>
