<svg width="21" height="20" viewBox="0 0 21 20" fill="none" xmlns="http://www.w3.org/2000/svg">
<path d="M10.5 2.62165C12.9031 2.62165 13.1877 2.6308 14.1367 2.6741C15.0142 2.71415 15.4908 2.86077 15.8079 2.98398C16.228 3.14725 16.5278 3.34231 16.8428 3.65723C17.1577 3.97215 17.3528 4.272 17.516 4.69206C17.6392 5.00923 17.7859 5.48577 17.8259 6.36323C17.8692 7.31228 17.8783 7.5969 17.8783 10C17.8783 12.4031 17.8692 12.6878 17.8259 13.6368C17.7859 14.5143 17.6392 14.9908 17.516 15.308C17.3528 15.728 17.1577 16.0279 16.8428 16.3428C16.5278 16.6577 16.228 16.8528 15.8079 17.016C15.4908 17.1393 15.0142 17.2859 14.1367 17.3259C13.1879 17.3692 12.9032 17.3784 10.5 17.3784C8.09672 17.3784 7.8121 17.3692 6.86323 17.3259C5.98574 17.2859 5.50919 17.1393 5.19206 17.016C4.77196 16.8528 4.47212 16.6577 4.1572 16.3428C3.84227 16.0279 3.64721 15.728 3.48398 15.308C3.36073 14.9908 3.21411 14.5143 3.17406 13.6368C3.13076 12.6878 3.12162 12.4031 3.12162 10C3.12162 7.5969 3.13076 7.31228 3.17406 6.36326C3.21411 5.48577 3.36073 5.00923 3.48398 4.69206C3.64721 4.272 3.84227 3.97215 4.1572 3.65723C4.47212 3.34231 4.77196 3.14725 5.19206 2.98398C5.50919 2.86077 5.98574 2.71415 6.86319 2.6741C7.81224 2.6308 8.09687 2.62165 10.5 2.62165ZM10.5 1C8.05571 1 7.74926 1.01036 6.78931 1.05416C5.83133 1.09789 5.17712 1.25001 4.60462 1.47251C4.01279 1.70251 3.51088 2.01025 3.01055 2.51058C2.51021 3.01092 2.20247 3.51283 1.97247 4.10466C1.74997 4.67716 1.59785 5.33137 1.55412 6.28935C1.51032 7.24926 1.5 7.55575 1.5 10C1.5 12.4443 1.51032 12.7508 1.55412 13.7107C1.59785 14.6687 1.74997 15.3229 1.97247 15.8954C2.20247 16.4872 2.51021 16.9891 3.01055 17.4895C3.51088 17.9898 4.01279 18.2975 4.60462 18.5275C5.17712 18.75 5.83133 18.9021 6.78931 18.9459C7.74926 18.9897 8.05571 19 10.5 19C12.9443 19 13.2507 18.9897 14.2107 18.9459C15.1686 18.9021 15.8228 18.75 16.3953 18.5275C16.9872 18.2975 17.4891 17.9898 17.9894 17.4895C18.4898 16.9891 18.7975 16.4872 19.0275 15.8954C19.25 15.3229 19.4021 14.6687 19.4458 13.7107C19.4896 12.7508 19.5 12.4443 19.5 10C19.5 7.55575 19.4896 7.24926 19.4458 6.28935C19.4021 5.33137 19.25 4.67716 19.0275 4.10466C18.7975 3.51283 18.4898 3.01092 17.9894 2.51058C17.4891 2.01025 16.9872 1.70251 16.3953 1.47251C15.8228 1.25001 15.1686 1.09789 14.2107 1.05416C13.2507 1.01036 12.9443 1 10.5 1ZM10.5 5.37838C7.94753 5.37838 5.87835 7.44757 5.87835 10C5.87835 12.5525 7.94753 14.6217 10.5 14.6217C13.0524 14.6217 15.1216 12.5525 15.1216 10C15.1216 7.44757 13.0524 5.37838 10.5 5.37838ZM10.5 13C8.84314 13 7.49996 11.6569 7.49996 10C7.49996 8.34317 8.84314 7 10.5 7C12.1568 7 13.5 8.34317 13.5 10C13.5 11.6569 12.1568 13 10.5 13ZM16.3842 5.19579C16.3842 5.79226 15.9007 6.27581 15.3042 6.27581C14.7077 6.27581 14.2242 5.79226 14.2242 5.19579C14.2242 4.59931 14.7077 4.1158 15.3042 4.1158C15.9007 4.1158 16.3842 4.59931 16.3842 5.19579Z" fill="#121212"/>
</svg>
