<svg width="249" height="24" viewBox="0 0 249 24" fill="none" xmlns="http://www.w3.org/2000/svg">
<g clip-path="url(#clip0_1154_4925)">
<g clip-path="url(#clip1_1154_4925)">
<path opacity="0.07" d="M35.5 0H3.5C1.8 0 0.5 1.3 0.5 3V21C0.5 22.7 1.9 24 3.5 24H35.5C37.2 24 38.5 22.7 38.5 21V3C38.5 1.3 37.1 0 35.5 0Z" fill="black"/>
<path d="M35.5 1C36.6 1 37.5 1.9 37.5 3V21C37.5 22.1 36.6 23 35.5 23H3.5C2.4 23 1.5 22.1 1.5 21V3C1.5 1.9 2.4 1 3.5 1H35.5Z" fill="#5A31F4"/>
<path d="M21.8821 9.71256C21.8821 11.3806 20.7051 12.5706 19.0611 12.5706H17.5121C17.4865 12.5709 17.4616 12.5787 17.4403 12.5929C17.419 12.6071 17.4023 12.6271 17.3921 12.6506C17.3856 12.6661 17.3822 12.6827 17.3821 12.6996V14.8916C17.3821 14.9086 17.3787 14.9254 17.3722 14.9412C17.3656 14.9569 17.3561 14.9711 17.344 14.9831C17.3319 14.9951 17.3175 15.0046 17.3018 15.011C17.286 15.0175 17.2691 15.0207 17.2521 15.0206H16.1681C16.1336 15.0206 16.1006 15.0069 16.0762 14.9825C16.0518 14.9581 16.0381 14.925 16.0381 14.8906V6.98556C16.0377 6.95981 16.0451 6.93454 16.0594 6.91311C16.0737 6.89167 16.0942 6.87509 16.1181 6.86556C16.1339 6.85894 16.1509 6.85554 16.1681 6.85556H19.0681C20.7051 6.85556 21.8821 8.04556 21.8821 9.71356V9.71256ZM20.5301 9.71256C20.5301 8.75456 19.8721 8.05456 18.9801 8.05456H17.5121C17.495 8.05456 17.4781 8.05793 17.4624 8.06446C17.4466 8.07099 17.4323 8.08057 17.4202 8.09264C17.4081 8.10471 17.3985 8.11904 17.392 8.13481C17.3855 8.15059 17.3821 8.16749 17.3821 8.18456V11.2346C17.3819 11.2517 17.3852 11.2686 17.3917 11.2844C17.3982 11.3003 17.4079 11.3146 17.4201 11.3266C17.4322 11.3387 17.4465 11.3483 17.4623 11.3548C17.4781 11.3613 17.495 11.3646 17.5121 11.3646H18.9801C19.8721 11.3696 20.5301 10.6696 20.5301 9.71256ZM22.2041 13.5036C22.1927 13.2474 22.246 12.9924 22.359 12.7623C22.4721 12.5321 22.6413 12.3341 22.8511 12.1866C23.2741 11.8706 23.9351 11.7066 24.9061 11.6726L25.9391 11.6366V11.3336C25.9391 10.7266 25.5291 10.4706 24.8711 10.4706C24.2131 10.4706 23.7961 10.7016 23.7011 11.0806C23.693 11.1072 23.6764 11.1304 23.6538 11.1467C23.6312 11.1629 23.6039 11.1713 23.5761 11.1706H22.5541C22.526 11.1709 22.4985 11.1622 22.4758 11.1456C22.453 11.129 22.4363 11.1055 22.4281 11.0786C22.4227 11.0608 22.4213 11.042 22.4241 11.0236C22.5761 10.1256 23.3281 9.44356 24.9181 9.44356C26.6101 9.44356 27.2211 10.2266 27.2211 11.7196V14.8916C27.221 14.9087 27.2174 14.9257 27.2107 14.9415C27.204 14.9573 27.1942 14.9716 27.182 14.9836C27.1697 14.9955 27.1552 15.005 27.1392 15.0113C27.1233 15.0177 27.1063 15.0208 27.0891 15.0206H26.0591C26.0246 15.0206 25.9916 15.0069 25.9672 14.9825C25.9428 14.9581 25.9291 14.925 25.9291 14.8906V14.6546C25.9294 14.635 25.9238 14.6158 25.9129 14.5995C25.902 14.5832 25.8863 14.5707 25.8681 14.5636C25.8501 14.5565 25.8303 14.5548 25.8113 14.5587C25.7923 14.5626 25.7749 14.5719 25.7611 14.5856C25.4511 14.9196 24.9531 15.1606 24.1541 15.1606C22.9791 15.1606 22.2041 14.5536 22.2041 13.5036ZM25.9391 12.8166V12.5706L24.6001 12.6406C23.8951 12.6766 23.4851 12.9666 23.4851 13.4566C23.4851 13.9006 23.8611 14.1466 24.5191 14.1466C25.4121 14.1466 25.9391 13.6666 25.9391 12.8166ZM28.2551 17.4166V16.4976C28.2554 16.4783 28.2599 16.4593 28.2684 16.4421C28.2768 16.4248 28.289 16.4096 28.3041 16.3976C28.3191 16.3855 28.3365 16.3768 28.3551 16.3721C28.3738 16.3675 28.3932 16.3669 28.4121 16.3706C28.5701 16.3996 28.7301 16.4146 28.8911 16.4146C29.1669 16.4297 29.4397 16.3515 29.6656 16.1925C29.8914 16.0336 30.0572 15.8032 30.1361 15.5386L30.2031 15.3276C30.2131 15.2991 30.2131 15.268 30.2031 15.2396L28.0581 9.76856C28.0457 9.73854 28.0449 9.70495 28.056 9.6744C28.0671 9.64386 28.0893 9.61859 28.1181 9.60356C28.1372 9.59349 28.1585 9.58834 28.1801 9.58856H29.2201C29.2468 9.58863 29.2728 9.5968 29.2948 9.61197C29.3168 9.62715 29.3336 9.64862 29.3431 9.67356L30.7991 13.5326C30.8081 13.5585 30.825 13.5809 30.8474 13.5967C30.8699 13.6125 30.8967 13.6208 30.9241 13.6206C30.9515 13.6205 30.9781 13.6121 31.0005 13.5963C31.0229 13.5806 31.0398 13.5583 31.0491 13.5326L32.3141 9.68456C32.3227 9.65803 32.3396 9.63496 32.3622 9.61876C32.3849 9.60255 32.4122 9.59407 32.4401 9.59456H33.5161C33.5484 9.59475 33.5795 9.60659 33.6038 9.62791C33.628 9.64922 33.6438 9.67857 33.6481 9.71056C33.6505 9.7319 33.6478 9.75351 33.6401 9.77356L31.3451 15.8496C30.8171 17.2626 29.9121 17.6226 28.9151 17.6226C28.7259 17.6278 28.5369 17.6055 28.3541 17.5566C28.3235 17.549 28.2965 17.5308 28.2782 17.5051C28.2598 17.4794 28.2513 17.448 28.2541 17.4166H28.2551ZM9.0701 6.39956C7.7056 6.38937 6.38852 6.89968 5.3871 7.82656C5.34449 7.86532 5.31789 7.91859 5.31253 7.97594C5.30716 8.03329 5.32342 8.09058 5.3581 8.13656L5.9761 8.97556C5.99613 9.00385 6.02214 9.02739 6.05228 9.04449C6.08243 9.06159 6.11598 9.07184 6.15053 9.07452C6.18509 9.07719 6.21981 9.07222 6.25223 9.05995C6.28465 9.04769 6.31397 9.02844 6.3381 9.00356C6.69803 8.64616 7.12547 8.36395 7.59554 8.17338C8.06561 7.98281 8.56891 7.88769 9.0761 7.89356C11.1961 7.89356 12.3031 9.47756 12.3031 11.0436C12.3031 12.7436 11.1401 13.9416 9.4681 13.9646C8.1761 13.9646 7.2021 13.1146 7.2021 11.9906C7.20321 11.7063 7.2678 11.426 7.39116 11.1699C7.51452 10.9138 7.69353 10.6886 7.9151 10.5106C7.96228 10.4719 7.99223 10.4161 7.99841 10.3554C8.0046 10.2947 7.98651 10.234 7.9481 10.1866L7.2981 9.37156C7.27848 9.34651 7.25399 9.32568 7.22611 9.31033C7.19822 9.29498 7.16752 9.28543 7.13586 9.28226C7.10419 9.27908 7.0722 9.28234 7.04183 9.29185C7.01145 9.30135 6.98331 9.3169 6.9591 9.33756C6.561 9.65691 6.23918 10.0611 6.0171 10.5206C5.79582 10.979 5.68063 11.4815 5.6801 11.9906C5.6801 13.9256 7.3351 15.4426 9.4551 15.4546H9.4851C12.0021 15.4226 13.8221 13.5706 13.8221 11.0396C13.8221 8.79256 12.1551 6.39956 9.0701 6.39956Z" fill="white"/>
</g>
<g clip-path="url(#clip2_1154_4925)">
<path opacity="0.07" d="M77.5 0H45.5C43.8 0 42.5 1.3 42.5 3V21C42.5 22.7 43.9 24 45.5 24H77.5C79.2 24 80.5 22.7 80.5 21V3C80.5 1.3 79.1 0 77.5 0Z" fill="black"/>
<path d="M77.5 1C78.6 1 79.5 1.9 79.5 3V21C79.5 22.1 78.6 23 77.5 23H45.5C44.4 23 43.5 22.1 43.5 21V3C43.5 1.9 44.4 1 45.5 1H77.5Z" fill="white"/>
<path d="M70.8 10.1H70.5C70.1 11.1 69.8 11.6 69.5 13.1H71.4C71.1 11.6 71.1 10.9 70.8 10.1ZM73.7 16H72C71.9 16 71.9 16 71.8 15.9L71.6 15L71.5 14.8H69.1C69 14.8 68.9 14.8 68.9 15L68.6 15.9C68.6 16 68.5 16 68.5 16H66.4L66.6 15.5L69.5 8.7C69.5 8.2 69.8 8 70.3 8H71.8C71.9 8 72 8 72 8.2L73.4 14.7C73.5 15.1 73.6 15.4 73.6 15.8C73.7 15.9 73.7 15.9 73.7 16ZM60.3 15.7L60.7 13.9C60.8 13.9 60.9 14 60.9 14C61.6 14.3 62.3 14.5 63 14.4C63.2 14.4 63.5 14.3 63.7 14.2C64.2 14 64.2 13.5 63.8 13.1C63.6 12.9 63.3 12.8 63 12.6C62.6 12.4 62.2 12.2 61.9 11.9C60.7 10.9 61.1 9.5 61.8 8.8C62.4 8.4 62.7 8 63.5 8C64.7 8 66 8 66.6 8.2H66.7C66.6 8.8 66.5 9.3 66.3 9.9C65.8 9.7 65.3 9.5 64.8 9.5C64.5 9.5 64.2 9.5 63.9 9.6C63.7 9.6 63.6 9.7 63.5 9.8C63.3 10 63.3 10.3 63.5 10.5L64 10.9C64.4 11.1 64.8 11.3 65.1 11.5C65.6 11.8 66.1 12.3 66.2 12.9C66.4 13.8 66.1 14.6 65.3 15.2C64.8 15.6 64.6 15.8 63.9 15.8C62.5 15.8 61.4 15.9 60.5 15.6C60.4 15.8 60.4 15.8 60.3 15.7ZM56.8 16C56.9 15.3 56.9 15.3 57 15C57.5 12.8 58 10.5 58.4 8.3C58.5 8.1 58.5 8 58.7 8H60.5C60.3 9.2 60.1 10.1 59.8 11.2C59.5 12.7 59.2 14.2 58.8 15.7C58.8 15.9 58.7 15.9 58.5 15.9L56.8 16ZM47.5 8.2C47.5 8.1 47.7 8 47.8 8H51.2C51.7 8 52.1 8.3 52.2 8.8L53.1 13.2C53.1 13.3 53.1 13.3 53.2 13.4C53.2 13.3 53.3 13.3 53.3 13.3L55.4 8.2C55.3 8.1 55.4 8 55.5 8H57.6C57.6 8.1 57.6 8.1 57.5 8.2L54.4 15.5C54.3 15.7 54.3 15.8 54.2 15.9C54.1 16 53.9 15.9 53.7 15.9H52.2C52.1 15.9 52 15.9 52 15.7L50.4 9.5C50.2 9.3 49.9 9 49.5 8.9C48.9 8.6 47.8 8.4 47.6 8.4L47.5 8.2Z" fill="#142688"/>
</g>
<g clip-path="url(#clip3_1154_4925)">
<path opacity="0.07" d="M119.5 0H87.5C85.8 0 84.5 1.3 84.5 3V21C84.5 22.7 85.9 24 87.5 24H119.5C121.2 24 122.5 22.7 122.5 21V3C122.5 1.3 121.1 0 119.5 0Z" fill="black"/>
<path d="M119.5 1C120.6 1 121.5 1.9 121.5 3V21C121.5 22.1 120.6 23 119.5 23H87.5C86.4 23 85.5 22.1 85.5 21V3C85.5 1.9 86.4 1 87.5 1H119.5Z" fill="white"/>
<path d="M99.5 19C103.366 19 106.5 15.866 106.5 12C106.5 8.13401 103.366 5 99.5 5C95.634 5 92.5 8.13401 92.5 12C92.5 15.866 95.634 19 99.5 19Z" fill="#EB001B"/>
<path d="M107.5 19C111.366 19 114.5 15.866 114.5 12C114.5 8.13401 111.366 5 107.5 5C103.634 5 100.5 8.13401 100.5 12C100.5 15.866 103.634 19 107.5 19Z" fill="#F79E1B"/>
<path d="M106.5 11.9998C106.5 9.5998 105.3 7.4998 103.5 6.2998C101.7 7.5998 100.5 9.6998 100.5 11.9998C100.5 14.2998 101.7 16.4998 103.5 17.6998C105.3 16.4998 106.5 14.3998 106.5 11.9998Z" fill="#FF5F00"/>
</g>
<g clip-path="url(#clip4_1154_4925)">
<path d="M160.887 0H130.113C129.985 0 129.856 0 129.728 0.00067947C129.62 0.00158543 129.512 0.00271788 129.404 0.00566225C129.169 0.012004 128.932 0.0260463 128.699 0.0677205C128.466 0.107648 128.241 0.182074 128.029 0.288548C127.605 0.504411 127.26 0.849374 127.044 1.27378C126.937 1.48497 126.863 1.71095 126.823 1.94419C126.781 2.17679 126.767 2.41393 126.761 2.64903C126.758 2.75697 126.757 2.86493 126.756 2.97291C126.756 3.10065 126.756 3.22884 126.756 3.35726V20.6425C126.756 20.7709 126.756 20.8989 126.756 21.0273C126.757 21.1351 126.758 21.2432 126.761 21.3512C126.767 21.5858 126.781 21.8232 126.823 22.0556C126.863 22.2888 126.937 22.5148 127.044 22.726C127.151 22.9369 127.291 23.1296 127.458 23.2967C127.626 23.4642 127.818 23.6041 128.029 23.7112C128.244 23.8206 128.463 23.8902 128.7 23.9325C128.932 23.974 129.169 23.988 129.404 23.9943C129.512 23.9968 129.62 23.9982 129.728 23.9989C129.856 23.9998 129.985 23.9998 130.113 23.9998H160.887C161.015 23.9998 161.144 23.9998 161.272 23.9989C161.379 23.9984 161.487 23.9968 161.596 23.9943C161.831 23.988 162.068 23.974 162.301 23.9325C162.534 23.8925 162.76 23.818 162.971 23.7112C163.395 23.4951 163.74 23.1502 163.956 22.726C164.065 22.5115 164.135 22.2918 164.176 22.0556C164.219 21.8232 164.232 21.5858 164.239 21.3512C164.242 21.2432 164.243 21.1351 164.244 21.0273C164.244 20.8989 164.244 20.7709 164.244 20.6425V3.35749C164.244 3.22907 164.244 3.10087 164.244 2.97268C164.243 2.86478 164.241 2.75689 164.239 2.64903C164.232 2.41393 164.219 2.17679 164.176 1.94419C164.137 1.71091 164.063 1.4849 163.956 1.27378C163.74 0.849448 163.395 0.504513 162.971 0.288548C162.76 0.182184 162.534 0.107836 162.301 0.067947C162.068 0.0260463 161.831 0.0122305 161.596 0.00588874C161.488 0.00314533 161.38 0.00148432 161.272 0.000905959C161.144 0 161.015 0 160.887 0Z" fill="black"/>
<path d="M160.887 0.799805L161.266 0.800484C161.368 0.801164 161.471 0.802296 161.574 0.805014C161.754 0.809997 161.963 0.819736 162.159 0.854842C162.329 0.885418 162.472 0.931848 162.608 1.00161C162.882 1.1408 163.105 1.36345 163.243 1.63736C163.313 1.77326 163.359 1.91504 163.39 2.08649C163.424 2.27992 163.434 2.49033 163.439 2.67084C163.442 2.77276 163.443 2.87468 163.443 2.97886C163.445 3.10502 163.445 3.23095 163.445 3.35733V20.6426C163.445 20.769 163.445 20.8949 163.444 21.0235C163.443 21.1255 163.442 21.2274 163.439 21.3293C163.434 21.5096 163.424 21.72 163.389 21.9157C163.363 22.0713 163.314 22.2222 163.243 22.363C163.104 22.637 162.881 22.8597 162.607 22.9988C162.471 23.0681 162.329 23.1145 162.161 23.1448C161.961 23.1804 161.742 23.1901 161.578 23.1947C161.474 23.1969 161.371 23.1985 161.265 23.199C161.14 23.1999 161.013 23.1999 160.887 23.1999H130.108C129.983 23.1999 129.859 23.1999 129.732 23.199C129.63 23.1985 129.528 23.1972 129.426 23.1949C129.258 23.1904 129.039 23.1804 128.841 23.1451C128.684 23.119 128.533 23.0694 128.391 22.9979C128.255 22.9288 128.131 22.8386 128.024 22.7306C127.916 22.623 127.826 22.4989 127.757 22.363C127.686 22.2214 127.637 22.0698 127.611 21.9134C127.575 21.718 127.565 21.5085 127.561 21.3295C127.558 21.2272 127.557 21.1249 127.556 21.0226L127.556 20.7221V3.27806L127.556 2.97796C127.557 2.8755 127.558 2.77304 127.561 2.67061C127.566 2.49123 127.575 2.28173 127.611 2.08468C127.637 1.9286 127.686 1.77733 127.757 1.63601C127.826 1.50056 127.916 1.3769 128.024 1.26841C128.132 1.16049 128.256 1.07029 128.392 1.00115C128.534 0.930167 128.685 0.880844 128.841 0.854842C129.037 0.819736 129.247 0.809997 129.426 0.805014C129.529 0.802296 129.631 0.801164 129.733 0.800484L130.113 0.799805H160.887Z" fill="white"/>
<path d="M136.61 8.10171C136.928 7.70422 137.143 7.17039 137.086 6.625C136.621 6.6481 136.054 6.93189 135.725 7.32984C135.43 7.67048 135.169 8.22651 135.236 8.74902C135.759 8.79432 136.281 8.48811 136.61 8.10171Z" fill="black"/>
<path d="M137.081 8.8507C136.322 8.8054 135.677 9.28103 135.315 9.28103C134.953 9.28103 134.398 8.87335 133.798 8.88445C133.017 8.89577 132.293 9.33742 131.897 10.0395C131.082 11.4438 131.682 13.5275 132.474 14.6713C132.859 15.2375 133.323 15.8603 133.934 15.8379C134.512 15.8153 134.738 15.4642 135.439 15.4642C136.141 15.4642 136.345 15.8379 136.956 15.8266C137.59 15.8153 137.986 15.2604 138.371 14.6941C138.813 14.0486 138.993 13.4258 139.004 13.3918C138.993 13.3805 137.782 12.916 137.771 11.5231C137.76 10.3566 138.722 9.80173 138.767 9.76753C138.224 8.96394 137.375 8.87335 137.08 8.8507" fill="black"/>
<path d="M144.642 7.27246C146.291 7.27246 147.439 8.40876 147.439 10.063C147.439 11.7232 146.267 12.8654 144.601 12.8654H142.776V15.7681H141.457V7.27246H144.642ZM142.776 11.7585H144.289C145.437 11.7585 146.09 11.1405 146.09 10.0689C146.09 8.99763 145.437 8.38521 144.295 8.38521H142.776V11.7585Z" fill="black"/>
<path d="M147.766 14.0075C147.766 12.9183 148.596 12.2944 150.126 12.2002L151.769 12.1V11.6289C151.769 10.9404 151.316 10.5635 150.509 10.5635C149.844 10.5635 149.361 10.9049 149.261 11.4287H148.072C148.107 10.328 149.143 9.52734 150.544 9.52734C152.051 9.52734 153.035 10.3162 153.035 11.5408V15.7678H151.816V14.7493H151.787C151.439 15.4145 150.674 15.8324 149.844 15.8324C148.619 15.8324 147.766 15.1026 147.766 14.0075ZM151.769 13.4601V12.9831L150.303 13.0773C149.479 13.1303 149.049 13.4363 149.049 13.972C149.049 14.4902 149.496 14.8258 150.197 14.8258C151.092 14.8258 151.769 14.2546 151.769 13.4601Z" fill="black"/>
<path d="M154.155 18.0398V17.0215C154.238 17.0331 154.438 17.0448 154.544 17.0448C155.126 17.0448 155.456 16.798 155.656 16.1618L155.774 15.7851L153.543 9.60352H154.92L156.475 14.6194H156.504L158.058 9.60352H159.401L157.087 16.097C156.557 17.5866 155.951 18.0754 154.667 18.0754C154.567 18.0754 154.243 18.0636 154.155 18.0398Z" fill="black"/>
</g>
<g clip-path="url(#clip5_1154_4925)">
<path opacity="0.07" d="M203.5 0H171.5C169.8 0 168.5 1.3 168.5 3V21C168.5 22.7 169.9 24 171.5 24H203.5C205.2 24 206.5 22.7 206.5 21V3C206.5 1.3 205.1 0 203.5 0Z" fill="black"/>
<path d="M203.5 1C204.6 1 205.5 1.9 205.5 3V21C205.5 22.1 204.6 23 203.5 23H171.5C170.4 23 169.5 22.1 169.5 21V3C169.5 1.9 170.4 1 171.5 1H203.5Z" fill="white"/>
<path d="M186.593 11.9757V15.1757H185.575V7.27574H188.266C188.588 7.27028 188.909 7.32861 189.209 7.44737C189.508 7.56613 189.782 7.74297 190.013 7.96774C190.232 8.17214 190.409 8.41769 190.533 8.69038C190.657 8.96306 190.726 9.25753 190.736 9.55694C190.746 9.85636 190.697 10.1549 190.592 10.4354C190.487 10.7159 190.328 10.9729 190.123 11.1917L190.013 11.3077C189.543 11.7547 188.915 11.9977 188.266 11.9817L186.593 11.9757ZM186.593 8.24374V11.0317H188.291C188.668 11.0437 189.032 10.8967 189.296 10.6277C189.485 10.4309 189.612 10.1829 189.661 9.91458C189.71 9.64624 189.679 9.36943 189.571 9.11857C189.464 8.86771 189.286 8.65387 189.058 8.50366C188.831 8.35345 188.564 8.2735 188.291 8.27374L186.593 8.24374ZM193.077 9.59174C193.727 9.56174 194.363 9.77974 194.855 10.2047C195.3 10.6347 195.537 11.2347 195.505 11.8537V15.1877H194.536V14.4217H194.487C194.313 14.709 194.067 14.946 193.774 15.1093C193.481 15.2726 193.15 15.3565 192.814 15.3527C192.266 15.3705 191.731 15.1801 191.318 14.8197C191.122 14.66 190.965 14.4577 190.859 14.2284C190.753 13.999 190.7 13.7485 190.705 13.4957C190.693 13.2403 190.743 12.9859 190.85 12.7535C190.956 12.5211 191.117 12.3176 191.318 12.1597C191.811 11.8049 192.409 11.6238 193.016 11.6447C193.533 11.6247 194.046 11.7377 194.506 11.9757V11.7677C194.509 11.5958 194.474 11.4253 194.401 11.2692C194.329 11.1131 194.222 10.9755 194.089 10.8667C193.821 10.6234 193.471 10.4917 193.109 10.4987C192.846 10.4963 192.587 10.5608 192.357 10.6863C192.126 10.8117 191.931 10.994 191.79 11.2157L190.895 10.6517C191.138 10.3035 191.466 10.0233 191.848 9.83779C192.23 9.65225 192.653 9.56754 193.077 9.59174ZM191.79 13.5197C191.788 13.6493 191.817 13.7774 191.876 13.8928C191.935 14.0083 192.021 14.1075 192.127 14.1817C192.35 14.3577 192.627 14.4507 192.912 14.4447C193.341 14.4437 193.752 14.2747 194.058 13.9727C194.363 13.6867 194.536 13.2877 194.536 12.8697C194.151 12.5961 193.683 12.4639 193.212 12.4957C192.846 12.4813 192.485 12.5844 192.182 12.7897C192.062 12.8701 191.963 12.9786 191.895 13.1059C191.827 13.2332 191.791 13.3753 191.79 13.5197ZM201.076 9.76974L197.686 17.5597H196.638L197.919 14.8317L195.695 9.76974H196.798L198.41 13.6547L199.979 9.76974H201.076Z" fill="#5F6368"/>
<path d="M182.486 11.2843C182.486 10.9763 182.462 10.6683 182.413 10.3643H178.123V12.1113H180.574C180.524 12.3889 180.419 12.6536 180.264 12.8895C180.109 13.1255 179.909 13.3277 179.674 13.4843V14.6183H181.138C181.583 14.1875 181.933 13.6683 182.165 13.0941C182.397 12.5198 182.507 11.9033 182.486 11.2843Z" fill="#4285F4"/>
<path d="M178.129 15.7209C179.235 15.7513 180.312 15.359 181.139 14.6239L179.673 13.4839C179.321 13.7098 178.922 13.8523 178.506 13.9008C178.09 13.9492 177.669 13.9022 177.274 13.7633C176.88 13.6245 176.522 13.3975 176.228 13.0995C175.934 12.8016 175.712 12.4406 175.579 12.0439H174.077V13.2139C174.453 13.967 175.031 14.6004 175.747 15.0432C176.462 15.486 177.287 15.7207 178.129 15.7209Z" fill="#34A853"/>
<path d="M175.579 12.0495C175.389 11.4868 175.389 10.8772 175.579 10.3145V9.14453H174.077C173.757 9.77599 173.59 10.474 173.59 11.182C173.59 11.89 173.757 12.5881 174.077 13.2195L175.579 12.0495Z" fill="#FBBC04"/>
<path d="M178.129 8.44019C178.776 8.42837 179.401 8.6728 179.869 9.12019L181.169 7.82719C180.34 7.0492 179.241 6.62485 178.104 6.64419C177.267 6.64838 176.448 6.88419 175.737 7.32547C175.027 7.76674 174.452 8.39625 174.077 9.14419L175.579 10.3152C175.755 9.77527 176.095 9.304 176.552 8.96766C177.01 8.63132 177.561 8.44685 178.129 8.44019Z" fill="#EA4335"/>
</g>
<g clip-path="url(#clip6_1154_4925)">
<path opacity="0.07" d="M245.5 0H213.5C211.8 0 210.5 1.3 210.5 3V21C210.5 22.7 211.9 24 213.5 24H245.5C247.2 24 248.5 22.7 248.5 21V3C248.5 1.3 247.1 0 245.5 0Z" fill="black"/>
<path d="M245.5 1C246.6 1 247.5 1.9 247.5 3V21C247.5 22.1 246.6 23 245.5 23H213.5C212.4 23 211.5 22.1 211.5 21V3C211.5 1.9 212.4 1 213.5 1H245.5Z" fill="#006FCF"/>
<path d="M219.471 10.268L220.245 12.144H218.703L219.471 10.268ZM235.546 10.346H232.569V11.173H235.498V12.412H232.575V13.334H235.552V14.073L237.629 11.828L235.552 9.488L235.546 10.346ZM221.483 8.006H225.478L226.365 9.941L227.187 8H237.557L238.635 9.19L239.75 8H244.513L240.994 11.852L244.477 15.68H239.643L238.565 14.49L237.44 15.68H220.53L220.036 14.49H218.906L218.411 15.68H214.5L217.786 8H221.216L221.483 8.006ZM230.146 9.084H227.907L226.407 12.62L224.782 9.084H222.56V13.894L220.5 9.084H218.507L216.125 14.596H217.68L218.174 13.406H220.77L221.264 14.596H223.984V10.661L225.735 14.602H226.925L228.665 10.673V14.603H230.123L230.147 9.083L230.146 9.084ZM239.486 11.852L242.017 9.084H240.195L238.594 10.81L237.046 9.084H231.152V14.602H236.962L238.576 12.864L240.124 14.602H241.999L239.487 11.852H239.486Z" fill="white"/>
</g>
</g>
<defs>
<clipPath id="clip0_1154_4925">
<rect width="248" height="24" fill="white" transform="translate(0.5)"/>
</clipPath>
<clipPath id="clip1_1154_4925">
<rect width="38" height="24" fill="white" transform="translate(0.5)"/>
</clipPath>
<clipPath id="clip2_1154_4925">
<rect width="38" height="24" fill="white" transform="translate(42.5)"/>
</clipPath>
<clipPath id="clip3_1154_4925">
<rect width="38" height="24" fill="white" transform="translate(84.5)"/>
</clipPath>
<clipPath id="clip4_1154_4925">
<rect width="38" height="24" fill="white" transform="translate(126.5)"/>
</clipPath>
<clipPath id="clip5_1154_4925">
<rect width="38" height="24" fill="white" transform="translate(168.5)"/>
</clipPath>
<clipPath id="clip6_1154_4925">
<rect width="38" height="24" fill="white" transform="translate(210.5)"/>
</clipPath>
</defs>
</svg>
