<svg width="20" height="21" viewBox="0 0 20 21" fill="none" xmlns="http://www.w3.org/2000/svg">
<path d="M9.7904 1.67221L10.1074 1.66087H10.1717C10.9416 1.66087 13.463 1.87612 14.6566 4.54848C14.8355 4.95247 14.9183 5.54131 14.9359 6.24126C14.9533 6.93126 14.9071 7.67032 14.8635 8.35232L14.8635 8.35232L14.8631 8.35924L14.8608 8.40508C14.8508 8.55529 14.8424 8.69474 14.8356 8.83499L14.8211 9.13395L15.0778 9.28795C15.2296 9.37905 15.4281 9.4342 15.6692 9.4342H15.6825L15.6958 9.43349C16.0317 9.41558 16.3969 9.30328 16.7478 9.13343L16.7567 9.12916L16.7653 9.12454C16.7794 9.11702 16.8003 9.10943 16.8291 9.10405C16.8579 9.09869 16.8881 9.0967 16.9167 9.0967C17.0191 9.0967 17.1 9.11353 17.1525 9.13487L17.1679 9.14113L17.1837 9.14636C17.4298 9.22784 17.4525 9.35673 17.4525 9.37003V9.37838L17.4528 9.38673L17.4528 9.38721C17.4532 9.39935 17.4548 9.4448 17.3622 9.53403C17.2607 9.63177 17.0753 9.75017 16.7698 9.87356C16.7342 9.88549 16.6956 9.89921 16.6602 9.91183L16.6452 9.91716C16.599 9.93359 16.553 9.9498 16.5055 9.96538C16.3175 10.0218 16.0442 10.1073 15.7918 10.2365C15.5493 10.3606 15.236 10.5694 15.085 10.9196L15.0849 10.9195L15.0802 10.9311C14.9315 11.3013 15.0105 11.7104 15.2017 12.0737L15.237 12.1408L15.2394 12.1432C15.3516 12.3811 15.6857 13.0367 16.2706 13.724C16.9503 14.5228 17.9989 15.399 19.4619 15.673C19.4025 15.7402 19.2674 15.8467 18.9737 15.9655C18.5909 16.1203 18.0295 16.2593 17.2653 16.3748L17.0429 16.4084L16.9205 16.5972C16.8739 16.6691 16.8457 16.7455 16.8306 16.789C16.8125 16.8411 16.7968 16.8964 16.7835 16.9468C16.7606 17.0335 16.7393 17.1288 16.7228 17.2022C16.7203 17.2134 16.7179 17.2241 16.7156 17.2341L16.7122 17.2491L16.7098 17.2642C16.6908 17.3812 16.661 17.5043 16.6186 17.6425H16.6042C16.5486 17.6425 16.4503 17.628 16.2537 17.5905C15.9302 17.5233 15.5588 17.4684 15.095 17.4684C14.8295 17.4684 14.5476 17.4815 14.2452 17.538C13.6269 17.6462 13.1067 18.0105 12.6338 18.3416L12.6116 18.3571L12.611 18.3575C11.8983 18.858 11.206 19.3378 10.1606 19.34C10.1576 19.3397 10.1515 19.339 10.1409 19.3377L10.1368 19.3371C10.1138 19.3342 10.0612 19.3275 10.0033 19.3275H9.87918C8.82971 19.3275 8.14588 18.8571 7.4387 18.3483L7.43872 18.3483L7.43374 18.3448C7.41602 18.3324 7.39825 18.3199 7.38041 18.3074C6.91992 17.984 6.4176 17.6313 5.81037 17.525L5.80276 17.5237L5.79511 17.5226C5.51818 17.4829 5.23082 17.4559 4.95085 17.4559C4.48438 17.4559 4.11268 17.5278 3.85734 17.5773C3.83644 17.5813 3.81633 17.5852 3.79701 17.5889L3.797 17.5889L3.79101 17.5901C3.61258 17.6265 3.50833 17.6417 3.44085 17.6417C3.43762 17.6417 3.43466 17.6416 3.43194 17.6416L3.43154 17.6403C3.41365 17.584 3.39892 17.522 3.38263 17.4461C3.37937 17.4309 3.37589 17.4144 3.37221 17.3969C3.35938 17.3359 3.34414 17.2634 3.32727 17.1967L3.32711 17.196C3.31945 17.1659 3.31093 17.1291 3.30019 17.0827L3.29901 17.0775C3.28834 17.0314 3.27583 16.9775 3.26255 16.9254C3.2496 16.8746 3.23348 16.8157 3.21437 16.7604C3.20146 16.7231 3.16603 16.6208 3.09412 16.5312L2.96561 16.3711L2.76167 16.3475C1.98151 16.2572 1.41491 16.1298 1.0324 15.9807C0.729749 15.8626 0.597387 15.7528 0.542042 15.6848C2.00264 15.4095 3.04981 14.5338 3.72896 13.7351C4.38197 12.967 4.72284 12.2381 4.79201 12.0827L4.79447 12.0782L4.79459 12.0783L4.79998 12.068C4.97654 11.7296 5.09411 11.3003 4.91028 10.904C4.75607 10.5643 4.44289 10.3621 4.20747 10.2418C3.97168 10.1213 3.71397 10.0346 3.5362 9.97487C3.5257 9.97134 3.51547 9.9679 3.50555 9.96456L3.48424 9.95738L3.46238 9.95214C3.40031 9.93726 3.33006 9.91171 3.2529 9.87896L3.25298 9.87879L3.24038 9.87384C2.82348 9.71002 2.65509 9.56009 2.5918 9.47702C2.54695 9.41815 2.54877 9.38737 2.55178 9.36893C2.55677 9.3464 2.58341 9.28673 2.68751 9.22096C2.79251 9.15461 2.92489 9.11753 3.03335 9.11753C3.08043 9.11753 3.11866 9.12543 3.15755 9.13988C3.53202 9.3114 3.91076 9.4292 4.27252 9.4292C4.55829 9.4292 4.7663 9.35463 4.90284 9.27878L5.18434 9.12239L5.15839 8.80141L5.12047 8.33236L5.11939 8.31438C5.07865 7.63858 5.03468 6.90918 5.05255 6.22773C5.07091 5.52804 5.15419 4.94157 5.33372 4.54134L5.33375 4.54135L5.33579 4.53667C6.49321 1.88416 9.0013 1.67253 9.77252 1.67253H9.78146L9.7904 1.67221Z" stroke="black"/>
</svg>
