<svg width="20" height="21" viewBox="0 0 20 21" fill="none" xmlns="http://www.w3.org/2000/svg">
<g clip-path="url(#clip0_1246_5965)">
<path d="M16.1146 15.7856C16.0106 15.7293 15.8837 15.7347 15.7844 15.7999C14.8715 16.3995 13.9477 16.7035 13.0388 16.7035C12.5434 16.7035 12.1172 16.5922 11.7332 16.3618C11.4737 16.2091 11.3017 16.0135 11.2081 15.7645C11.1367 15.5724 11.0514 15.0613 11.0514 13.7169V9.07532H15.3202C15.4984 9.07532 15.6428 8.93087 15.6428 8.75274V5.71404C15.6428 5.53584 15.4984 5.39147 15.3202 5.39147H11.0513V0.822577C11.0513 0.644374 10.907 0.5 10.7288 0.5H7.97499C7.81222 0.5 7.67487 0.621367 7.65491 0.782968C7.53647 1.7398 7.31937 2.53413 7.00909 3.14433C6.70304 3.74956 6.29031 4.27502 5.78215 4.70662C5.27621 5.13803 4.65629 5.47432 3.93938 5.70603C3.80622 5.74908 3.71594 5.87306 3.71594 6.01299V8.7527C3.71594 8.93083 3.86032 9.07528 4.03852 9.07528H5.85582V15.5422C5.85582 16.4771 5.95406 17.1783 6.15621 17.6852C6.35996 18.1985 6.72589 18.685 7.24413 19.1316C7.75522 19.5704 8.37756 19.9125 9.09381 20.1482C9.80162 20.3816 10.6248 20.5 11.5404 20.5C12.3414 20.5 13.0979 20.4181 13.7888 20.2566C14.481 20.0944 15.2584 19.8108 16.0991 19.4137C16.212 19.3604 16.284 19.2468 16.284 19.122V16.0695C16.2841 15.9509 16.2191 15.8419 16.1146 15.7856Z" fill="black"/>
</g>
<defs>
<clipPath id="clip0_1246_5965">
<rect width="20" height="20" fill="white" transform="translate(0 0.5)"/>
</clipPath>
</defs>
</svg>
