<svg width="19" height="15" viewBox="0 0 19 15" fill="none" xmlns="http://www.w3.org/2000/svg">
<path d="M16.6452 3.62529C16.6452 3.79391 16.6452 3.94848 16.6452 4.08899C16.6452 5.35363 16.4063 6.60422 15.9286 7.84075C15.4789 9.04918 14.8185 10.1593 13.9473 11.171C13.1042 12.1827 11.9941 13.0117 10.6171 13.6581C9.26815 14.2763 7.77869 14.5855 6.14871 14.5855C4.09719 14.5855 2.21429 14.0375 0.5 12.9415C0.78103 12.9696 1.07611 12.9836 1.38525 12.9836C3.09953 12.9836 4.63115 12.4637 5.98009 11.4239C5.16511 11.3958 4.43443 11.1429 3.78806 10.6651C3.16979 10.1874 2.74824 9.58314 2.52342 8.85246C2.74824 8.90866 2.97307 8.93677 3.19789 8.93677C3.53513 8.93677 3.85831 8.88056 4.16745 8.76815C3.32436 8.59953 2.62178 8.17799 2.05972 7.50351C1.49766 6.82904 1.21663 6.05621 1.21663 5.18501C1.21663 5.15691 1.21663 5.14286 1.21663 5.14286C1.75059 5.42389 2.31265 5.57845 2.90281 5.60656C1.80679 4.84777 1.25878 3.82201 1.25878 2.52927C1.25878 1.8548 1.4274 1.23653 1.76464 0.674473C2.69204 1.79859 3.80211 2.69789 5.09485 3.37237C6.41569 4.04684 7.83489 4.42623 9.35246 4.51054C9.29625 4.22951 9.26815 3.94848 9.26815 3.66745C9.26815 2.65574 9.61944 1.79859 10.322 1.09602C11.0527 0.36534 11.9239 0 12.9356 0C14.0035 0 14.9028 0.379391 15.6335 1.13817C16.4766 0.969555 17.2635 0.674473 17.9941 0.252927C17.7131 1.12412 17.1651 1.79859 16.3501 2.27635C17.1089 2.19204 17.8255 2.00937 18.5 1.72834C17.9941 2.45902 17.3759 3.09133 16.6452 3.62529Z" fill="#121212"/>
</svg>
