<svg width="21" height="20" viewBox="0 0 21 20" fill="none" xmlns="http://www.w3.org/2000/svg">
<path d="M19.2892 6.69789C19.4297 7.6815 19.5 8.65105 19.5 9.60656V10.9555L19.2892 13.8642C19.1768 14.6792 18.9379 15.2693 18.5726 15.6347C18.1792 16.0281 17.589 16.281 16.8021 16.3934C16.0433 16.4496 15.13 16.4918 14.0621 16.5199C13.0222 16.548 12.1651 16.5621 11.4906 16.5621H10.4789C7.35948 16.534 5.32201 16.4778 4.36651 16.3934C4.36651 16.3934 4.2541 16.3794 4.02927 16.3513C3.80445 16.3232 3.62178 16.2951 3.48126 16.267C3.34075 16.2389 3.15808 16.1686 2.93326 16.0562C2.73653 15.9438 2.55386 15.8033 2.38525 15.6347C2.24473 15.466 2.10422 15.2412 1.9637 14.9602C1.85129 14.6511 1.78103 14.3841 1.75293 14.1593L1.66862 13.8642C1.55621 12.8806 1.5 11.911 1.5 10.9555V9.60656L1.66862 6.69789C1.78103 5.8829 2.01991 5.29274 2.38525 4.9274C2.77869 4.50585 3.3829 4.25293 4.19789 4.16862C4.95667 4.11241 5.85597 4.07026 6.89578 4.04215C7.9356 4.01405 8.79274 4 9.46721 4H10.4789C13.0082 4 15.1159 4.05621 16.8021 4.16862C17.589 4.25293 18.1792 4.50585 18.5726 4.9274C18.685 5.03981 18.7834 5.18033 18.8677 5.34895C18.952 5.48946 19.0222 5.64403 19.0785 5.81265C19.1347 5.95316 19.1768 6.09368 19.2049 6.23419C19.233 6.37471 19.2611 6.48712 19.2892 6.57143V6.69789ZM12.9239 10.4075L13.5141 10.1124L8.66628 7.58314V12.6417L12.9239 10.4075Z" fill="#121212"/>
</svg>
